<?xml version="1.0" encoding="UTF-8"?>
<svg xmlns="http://www.w3.org/2000/svg" xmlns:xlink="http://www.w3.org/1999/xlink" width="80px" height="80px" viewBox="0 0 80 80" version="1.1">
<g id="surface1">
<path style=" stroke:none;fill-rule:nonzero;fill:rgb(0%,0%,0%);fill-opacity:1;" d="M 62.675781 79.472656 L 2.195312 79.472656 C 1.710938 79.472656 1.25 79.269531 0.917969 78.921875 C 0.585938 78.570312 0.414062 78.09375 0.441406 77.613281 L 4.359375 9.910156 C 4.414062 8.980469 5.179688 8.253906 6.113281 8.253906 L 58.761719 8.253906 C 59.691406 8.253906 60.460938 8.980469 60.515625 9.910156 L 64.429688 77.613281 C 64.457031 78.09375 64.285156 78.570312 63.953125 78.921875 C 63.621094 79.269531 63.160156 79.472656 62.675781 79.472656 Z M 4.054688 75.957031 L 60.816406 75.957031 L 57.101562 11.765625 L 7.769531 11.765625 Z M 4.054688 75.957031 "/>
<path style=" stroke:none;fill-rule:nonzero;fill:rgb(0%,0%,0%);fill-opacity:1;" d="M 32.4375 52.34375 C 23.046875 52.34375 15.410156 44.703125 15.410156 35.308594 L 15.410156 26.324219 C 15.410156 25.355469 16.195312 24.566406 17.167969 24.566406 C 18.136719 24.566406 18.921875 25.355469 18.921875 26.324219 L 18.921875 35.308594 C 18.921875 42.765625 24.984375 48.832031 32.4375 48.832031 C 39.886719 48.832031 45.949219 42.765625 45.949219 35.308594 L 45.949219 26.324219 C 45.949219 25.355469 46.738281 24.566406 47.707031 24.566406 C 48.675781 24.566406 49.464844 25.355469 49.464844 26.324219 L 49.464844 35.308594 C 49.464844 44.703125 41.824219 52.34375 32.4375 52.34375 Z M 32.4375 52.34375 "/>
<path style=" stroke:none;fill-rule:nonzero;fill:rgb(0%,0%,0%);fill-opacity:1;" d="M 62.675781 79.472656 C 62.484375 79.472656 62.292969 79.4375 62.105469 79.375 C 61.429688 79.140625 60.964844 78.527344 60.925781 77.816406 L 57.007812 10.113281 C 56.972656 9.492188 57.265625 8.898438 57.785156 8.550781 C 58.300781 8.207031 58.960938 8.160156 59.523438 8.429688 L 65.574219 11.339844 L 69.773438 1.507812 C 70.085938 0.773438 70.855469 0.339844 71.648438 0.460938 C 72.4375 0.578125 73.050781 1.214844 73.136719 2.007812 L 79.460938 60.476562 C 79.515625 60.96875 79.359375 61.457031 79.03125 61.828125 L 63.996094 78.875 C 63.65625 79.261719 63.171875 79.472656 62.675781 79.472656 Z M 60.6875 12.886719 L 64.183594 73.351562 L 75.882812 60.082031 L 70.367188 9.0625 L 68.082031 14.40625 C 67.894531 14.84375 67.535156 15.191406 67.085938 15.359375 C 66.636719 15.527344 66.140625 15.503906 65.707031 15.296875 Z M 60.6875 12.886719 "/>
<path style=" stroke:none;fill-rule:nonzero;fill:rgb(0%,0%,0%);fill-opacity:1;" d="M 71.390625 3.953125 L 19.601562 3.953125 C 18.632812 3.953125 17.847656 3.164062 17.847656 2.195312 C 17.847656 1.226562 18.632812 0.441406 19.601562 0.441406 L 71.390625 0.441406 C 72.359375 0.441406 73.144531 1.226562 73.144531 2.195312 C 73.144531 3.164062 72.359375 3.953125 71.390625 3.953125 Z M 71.390625 3.953125 "/>
<path style=" stroke:none;fill-rule:nonzero;fill:rgb(0%,0%,0%);fill-opacity:1;" d="M 21.722656 28.082031 L 12.609375 28.082031 C 11.640625 28.082031 10.851562 27.292969 10.851562 26.324219 C 10.851562 25.355469 11.640625 24.566406 12.609375 24.566406 L 21.722656 24.566406 C 22.691406 24.566406 23.480469 25.355469 23.480469 26.324219 C 23.480469 27.292969 22.691406 28.082031 21.722656 28.082031 Z M 21.722656 28.082031 "/>
<path style=" stroke:none;fill-rule:nonzero;fill:rgb(0%,0%,0%);fill-opacity:1;" d="M 52.265625 28.082031 L 43.152344 28.082031 C 42.179688 28.082031 41.394531 27.292969 41.394531 26.324219 C 41.394531 25.355469 42.179688 24.566406 43.152344 24.566406 L 52.265625 24.566406 C 53.234375 24.566406 54.019531 25.355469 54.019531 26.324219 C 54.019531 27.292969 53.234375 28.082031 52.265625 28.082031 Z M 52.265625 28.082031 "/>
<path style=" stroke:none;fill-rule:nonzero;fill:rgb(0%,0%,0%);fill-opacity:1;" d="M 15.269531 11.765625 C 14.980469 11.765625 14.691406 11.695312 14.421875 11.546875 C 13.574219 11.078125 13.265625 10.007812 13.734375 9.160156 L 18.066406 1.34375 C 18.535156 0.496094 19.605469 0.1875 20.453125 0.660156 C 21.300781 1.128906 21.609375 2.199219 21.140625 3.046875 L 16.808594 10.863281 C 16.488281 11.441406 15.886719 11.765625 15.269531 11.765625 Z M 15.269531 11.765625 "/>
</g>
</svg>
